Coordinates
version=1
nRows=4
nColumns=63
inDegrees=yes

Units are S.I. units (second, meters, Newtons, ...)
If the header above contains a line with 'inDegrees', this indicates whether rotational values are in degrees (yes) or radians (no).

endheader
time	pelvis_tilt	pelvis_list	pelvis_rotation	pelvis_tx	pelvis_ty	pelvis_tz	hip_flexion_r	hip_adduction_r	hip_rotation_r	knee_angle_r	knee_angle_r_beta	ankle_angle_r	subtalar_angle_r	mtp_angle_r	hip_flexion_l	hip_adduction_l	hip_rotation_l	knee_angle_l	knee_angle_l_beta	ankle_angle_l	subtalar_angle_l	mtp_angle_l	L5_S1_Flex_Ext	L5_S1_Lat_Bending	L5_S1_axial_rotation	L4_L5_Flex_Ext	L4_L5_Lat_Bending	L4_L5_axial_rotation	L3_L4_Flex_Ext	L3_L4_Lat_Bending	L3_L4_axial_rotation	L2_L3_Flex_Ext	L2_L3_Lat_Bending	L2_L3_axial_rotation	L1_L2_Flex_Ext	L1_L2_Lat_Bending	L1_L2_axial_rotation	L1_T12_Flex_Ext	L1_T12_Lat_Bending	L1_T12_axial_rotation	Abs_r3	Abs_r2	Abs_r1	Abs_t1	Abs_t2	neck_flexion	neck_bending	neck_rotation	arm_flex_r	arm_add_r	arm_rot_r	elbow_flex_r	pro_sup_r	wrist_flex_r	wrist_dev_r	arm_flex_l	arm_add_l	arm_rot_l	elbow_flex_l	pro_sup_l	wrist_flex_l	wrist_dev_l
      9.10000000	      6.49792951	      0.13994146	   -184.34169448	      2.55653059	      0.88324251	      0.67242076	     15.50529827	     -3.07820308	    -12.75594288	     24.98290085	      0.43603388	     25.02062474	      2.23722890	      0.00000000	      8.98405945	     -1.15838422	     -1.31486439	     15.47627489	      0.27011195	     14.80164361	    -18.03942064	      0.00000000	      0.00110224	     -0.09536811	     -0.55894078	      0.00204697	     -0.12683958	     -0.59387458	      0.00181087	     -0.23187802	     -0.59387458	      0.00125975	     -0.23187802	     -0.48907318	      0.00102354	     -0.19447464	     -0.45413938	      0.00062982	     -0.14772520	     -0.41920558	      0.00787320	     -1.07882310	     -3.10866092	      0.00000000	      0.00000000	     -0.00000000	      0.00000000	      0.00000000	     -8.67490040	     -3.14226289	     -8.27831848	     28.65983072	     52.16349993	      0.00000000	      5.00000014	    -17.07110494	     -4.83997270	      7.23708469	     25.06165872	     56.86818124	      0.00000000	      5.00000014
      9.13333333	      6.40737403	     -0.05895856	   -184.43602457	      2.55641831	      0.88335450	      0.67266258	     15.45875269	     -3.32814867	    -12.86983319	     25.04401563	      0.43710053	     25.23890666	      2.42759768	      0.00000000	      8.55706749	     -0.90552000	     -0.57935895	     14.92848637	      0.26055124	     14.92751860	    -18.04336174	      0.00000000	      0.00201415	     -0.10836643	     -0.47347771	      0.00374048	     -0.14412735	     -0.50307007	      0.00330905	     -0.26348214	     -0.50307007	      0.00230197	     -0.26348214	     -0.41429300	      0.00187034	     -0.22098083	     -0.38470064	      0.00115089	     -0.16785960	     -0.35510828	      0.01438688	     -1.22586274	     -2.63334098	      0.00000000	      0.00000000	     -0.00000000	      0.00000000	      0.00000000	     -8.88942656	     -3.05925581	     -8.78825406	     28.84916329	     51.55085172	      0.00000000	      5.00000014	    -16.78902149	     -4.97064560	      7.82680059	     24.84130199	     56.07323587	      0.00000000	      5.00000014
      9.16666667	      6.31942276	     -0.06499354	   -184.53039568	      2.55629620	      0.88353275	      0.67288396	     15.32056331	     -3.30179535	    -12.83793124	     24.91171651	      0.43479148	     25.27234881	      2.24363245	      0.00000000	      8.35254777	     -0.90383713	     -0.19662475	     14.86703002	      0.25947862	     15.28664485	    -17.91420749	      0.00000000	      0.00227604	     -0.09644080	     -0.37681100	      0.00422683	     -0.12826626	     -0.40036169	      0.00373930	     -0.23448615	     -0.40036169	      0.00260128	     -0.23448615	     -0.32970963	      0.00211353	     -0.19666207	     -0.30615894	      0.00130053	     -0.14938679	     -0.28260825	      0.01625750	     -1.09095758	     -2.09570975	      0.00000000	      0.00000000	     -0.00000000	      0.00000000	      0.00000000	     -8.88079647	     -3.20145508	     -8.80044942	     28.47375379	     51.19371693	      0.00000000	      5.00000014	    -16.45584394	     -4.97316114	      8.26866197	     24.58687546	     55.52193406	      0.00000000	      5.00000014
      9.20000000	      6.15408822	     -0.28864886	   -184.20237043	      2.55591311	      0.88381177	      0.67345813	     15.03318551	     -3.91147912	    -14.48220327	     24.92699654	      0.43505816	     25.74256629	      4.00711819	      0.00000000	      8.03926779	     -0.60542719	      0.52557055	     14.67807950	      0.25618082	     15.31968795	    -17.90352490	      0.00000000	      0.00288388	     -0.10603703	     -0.33828902	      0.00535566	     -0.14102926	     -0.35943208	      0.00473793	     -0.25781844	     -0.35943208	      0.00329599	     -0.25781844	     -0.29600289	      0.00267797	     -0.21623072	     -0.27485983	      0.00164785	     -0.16425137	     -0.25371676	      0.02059928	     -1.19951213	     -1.88146203	      0.00000000	      0.00000000	     -0.00000000	      0.00000000	      0.00000000	     -8.92960824	     -3.62322041	     -7.36014158	     28.10800567	     51.68583167	      0.00000000	      5.00000014	    -15.70561594	     -6.04430924	     13.80780290	     24.08704333	     56.90595663	      0.00000000	      5.00000014
